<svg id="visual" viewBox="0 0 960 540" width="960" height="540" xmlns="http://www.w3.org/2000/svg" xmlns:xlink="http://www.w3.org/1999/xlink" version="1.1"><rect x="0" y="0" width="960" height="540" fill="#004F57"></rect><path d="M0 497L10 495.2C20 493.3 40 489.7 60 491.5C80 493.3 100 500.7 120 503C140 505.3 160 502.7 180 498.8C200 495 220 490 240 491.3C260 492.7 280 500.3 300 497C320 493.7 340 479.3 360 480C380 480.7 400 496.3 420 496C440 495.7 460 479.3 480 472C500 464.7 520 466.3 540 467.8C560 469.3 580 470.7 600 473.3C620 476 640 480 660 480.2C680 480.3 700 476.7 720 478.8C740 481 760 489 780 486.8C800 484.7 820 472.3 840 473.3C860 474.3 880 488.7 900 496.2C920 503.7 940 504.3 950 504.7L960 505L960 541L950 541C940 541 920 541 900 541C880 541 860 541 840 541C820 541 800 541 780 541C760 541 740 541 720 541C700 541 680 541 660 541C640 541 620 541 600 541C580 541 560 541 540 541C520 541 500 541 480 541C460 541 440 541 420 541C400 541 380 541 360 541C340 541 320 541 300 541C280 541 260 541 240 541C220 541 200 541 180 541C160 541 140 541 120 541C100 541 80 541 60 541C40 541 20 541 10 541L0 541Z" fill="#FF7D81" stroke-linecap="round" stroke-linejoin="miter"></path></svg>