<svg xmlns="http://www.w3.org/2000/svg" version="1.1" xmlns:xlink="http://www.w3.org/1999/xlink" xmlns:svgjs="http://svgjs.dev/svgjs" viewBox="0 0 800 800"><g fill="none" stroke-width="3" stroke="#ff7d81" stroke-linecap="round"><line x1="368" y1="400" x2="432" y2="400" transform="rotate(0, 400, 400)" opacity="0.93"></line><line x1="514" y1="400" x2="286" y2="400" transform="rotate(4, 400, 400)" opacity="0.16"></line><line x1="318.5" y1="400" x2="481.5" y2="400" transform="rotate(8, 400, 400)" opacity="0.31"></line><line x1="701" y1="400" x2="99" y2="400" transform="rotate(12, 400, 400)" opacity="0.68"></line><line x1="44" y1="400" x2="756" y2="400" transform="rotate(16, 400, 400)" opacity="0.63"></line><line x1="709" y1="400" x2="91" y2="400" transform="rotate(20, 400, 400)" opacity="0.53"></line><line x1="116" y1="400" x2="684" y2="400" transform="rotate(24, 400, 400)" opacity="0.49"></line><line x1="213" y1="400" x2="587" y2="400" transform="rotate(28, 400, 400)" opacity="0.11"></line><line x1="155.5" y1="400" x2="644.5" y2="400" transform="rotate(32, 400, 400)" opacity="0.41"></line><line x1="596" y1="400" x2="204" y2="400" transform="rotate(36, 400, 400)" opacity="0.40"></line><line x1="517" y1="400" x2="283" y2="400" transform="rotate(40, 400, 400)" opacity="0.43"></line><line x1="310.5" y1="400" x2="489.5" y2="400" transform="rotate(44, 400, 400)" opacity="0.84"></line><line x1="226" y1="400" x2="574" y2="400" transform="rotate(48, 400, 400)" opacity="0.54"></line><line x1="588.5" y1="400" x2="211.5" y2="400" transform="rotate(52, 400, 400)" opacity="0.79"></line><line x1="39.5" y1="400" x2="760.5" y2="400" transform="rotate(56, 400, 400)" opacity="0.24"></line><line x1="466" y1="400" x2="334" y2="400" transform="rotate(60, 400, 400)" opacity="0.26"></line><line x1="389" y1="400" x2="411" y2="400" transform="rotate(64, 400, 400)" opacity="0.99"></line><line x1="244.5" y1="400" x2="555.5" y2="400" transform="rotate(68, 400, 400)" opacity="0.34"></line><line x1="363.5" y1="400" x2="436.5" y2="400" transform="rotate(72, 400, 400)" opacity="0.60"></line><line x1="620" y1="400" x2="180" y2="400" transform="rotate(76, 400, 400)" opacity="0.78"></line><line x1="191.5" y1="400" x2="608.5" y2="400" transform="rotate(80, 400, 400)" opacity="0.11"></line><line x1="378" y1="400" x2="422" y2="400" transform="rotate(84, 400, 400)" opacity="0.92"></line><line x1="670" y1="400" x2="130" y2="400" transform="rotate(88, 400, 400)" opacity="0.42"></line><line x1="650.5" y1="400" x2="149.5" y2="400" transform="rotate(92, 400, 400)" opacity="0.12"></line><line x1="712" y1="400" x2="88" y2="400" transform="rotate(96, 400, 400)" opacity="0.84"></line><line x1="498" y1="400" x2="302" y2="400" transform="rotate(100, 400, 400)" opacity="0.73"></line><line x1="639.5" y1="400" x2="160.5" y2="400" transform="rotate(104, 400, 400)" opacity="0.67"></line><line x1="624" y1="400" x2="176" y2="400" transform="rotate(108, 400, 400)" opacity="0.72"></line><line x1="415" y1="400" x2="385" y2="400" transform="rotate(112, 400, 400)" opacity="0.40"></line><line x1="192" y1="400" x2="608" y2="400" transform="rotate(116, 400, 400)" opacity="0.37"></line><line x1="640" y1="400" x2="160" y2="400" transform="rotate(120, 400, 400)" opacity="0.35"></line><line x1="605" y1="400" x2="195" y2="400" transform="rotate(124, 400, 400)" opacity="0.92"></line><line x1="124" y1="400" x2="676" y2="400" transform="rotate(128, 400, 400)" opacity="0.80"></line><line x1="350" y1="400" x2="450" y2="400" transform="rotate(132, 400, 400)" opacity="0.93"></line><line x1="683" y1="400" x2="117" y2="400" transform="rotate(136, 400, 400)" opacity="0.53"></line><line x1="438.5" y1="400" x2="361.5" y2="400" transform="rotate(140, 400, 400)" opacity="0.15"></line><line x1="348" y1="400" x2="452" y2="400" transform="rotate(144, 400, 400)" opacity="0.30"></line><line x1="137" y1="400" x2="663" y2="400" transform="rotate(148, 400, 400)" opacity="0.85"></line><line x1="214" y1="400" x2="586" y2="400" transform="rotate(152, 400, 400)" opacity="0.62"></line><line x1="255" y1="400" x2="545" y2="400" transform="rotate(156, 400, 400)" opacity="0.87"></line><line x1="736" y1="400" x2="64" y2="400" transform="rotate(160, 400, 400)" opacity="0.42"></line><line x1="622" y1="400" x2="178" y2="400" transform="rotate(164, 400, 400)" opacity="0.91"></line><line x1="338" y1="400" x2="462" y2="400" transform="rotate(168, 400, 400)" opacity="0.92"></line><line x1="345.5" y1="400" x2="454.5" y2="400" transform="rotate(172, 400, 400)" opacity="0.48"></line><line x1="70" y1="400" x2="730" y2="400" transform="rotate(176, 400, 400)" opacity="0.83"></line><line x1="621.5" y1="400" x2="178.5" y2="400" transform="rotate(180, 400, 400)" opacity="0.21"></line><line x1="734.5" y1="400" x2="65.5" y2="400" transform="rotate(184, 400, 400)" opacity="0.68"></line><line x1="184.5" y1="400" x2="615.5" y2="400" transform="rotate(188, 400, 400)" opacity="0.07"></line><line x1="713.5" y1="400" x2="86.5" y2="400" transform="rotate(192, 400, 400)" opacity="0.52"></line><line x1="282.5" y1="400" x2="517.5" y2="400" transform="rotate(196, 400, 400)" opacity="0.21"></line><line x1="174.5" y1="400" x2="625.5" y2="400" transform="rotate(200, 400, 400)" opacity="0.20"></line><line x1="328" y1="400" x2="472" y2="400" transform="rotate(204, 400, 400)" opacity="0.40"></line><line x1="193" y1="400" x2="607" y2="400" transform="rotate(208, 400, 400)" opacity="0.57"></line><line x1="352.5" y1="400" x2="447.5" y2="400" transform="rotate(212, 400, 400)" opacity="0.44"></line><line x1="611.5" y1="400" x2="188.5" y2="400" transform="rotate(216, 400, 400)" opacity="0.83"></line><line x1="217" y1="400" x2="583" y2="400" transform="rotate(220, 400, 400)" opacity="0.39"></line><line x1="619" y1="400" x2="181" y2="400" transform="rotate(224, 400, 400)" opacity="0.56"></line><line x1="732" y1="400" x2="68" y2="400" transform="rotate(228, 400, 400)" opacity="0.62"></line><line x1="154" y1="400" x2="646" y2="400" transform="rotate(232, 400, 400)" opacity="0.38"></line><line x1="677.5" y1="400" x2="122.5" y2="400" transform="rotate(236, 400, 400)" opacity="0.79"></line><line x1="224" y1="400" x2="576" y2="400" transform="rotate(240, 400, 400)" opacity="0.36"></line><line x1="705.5" y1="400" x2="94.5" y2="400" transform="rotate(244, 400, 400)" opacity="0.26"></line><line x1="735" y1="400" x2="65" y2="400" transform="rotate(248, 400, 400)" opacity="0.51"></line><line x1="613.5" y1="400" x2="186.5" y2="400" transform="rotate(252, 400, 400)" opacity="0.12"></line><line x1="668" y1="400" x2="132" y2="400" transform="rotate(256, 400, 400)" opacity="0.87"></line><line x1="112.5" y1="400" x2="687.5" y2="400" transform="rotate(260, 400, 400)" opacity="0.53"></line><line x1="47" y1="400" x2="753" y2="400" transform="rotate(264, 400, 400)" opacity="0.73"></line><line x1="484.5" y1="400" x2="315.5" y2="400" transform="rotate(268, 400, 400)" opacity="0.77"></line><line x1="610" y1="400" x2="190" y2="400" transform="rotate(272, 400, 400)" opacity="0.73"></line><line x1="458.5" y1="400" x2="341.5" y2="400" transform="rotate(276, 400, 400)" opacity="0.64"></line><line x1="380" y1="400" x2="420" y2="400" transform="rotate(280, 400, 400)" opacity="0.39"></line><line x1="441.5" y1="400" x2="358.5" y2="400" transform="rotate(284, 400, 400)" opacity="0.53"></line><line x1="668" y1="400" x2="132" y2="400" transform="rotate(288, 400, 400)" opacity="0.43"></line><line x1="192.5" y1="400" x2="607.5" y2="400" transform="rotate(292, 400, 400)" opacity="0.13"></line><line x1="584" y1="400" x2="216" y2="400" transform="rotate(296, 400, 400)" opacity="0.90"></line><line x1="343" y1="400" x2="457" y2="400" transform="rotate(300, 400, 400)" opacity="0.99"></line><line x1="394" y1="400" x2="406" y2="400" transform="rotate(304, 400, 400)" opacity="0.10"></line><line x1="501.5" y1="400" x2="298.5" y2="400" transform="rotate(308, 400, 400)" opacity="0.68"></line><line x1="310" y1="400" x2="490" y2="400" transform="rotate(312, 400, 400)" opacity="0.08"></line><line x1="652.5" y1="400" x2="147.5" y2="400" transform="rotate(316, 400, 400)" opacity="0.92"></line><line x1="101" y1="400" x2="699" y2="400" transform="rotate(320, 400, 400)" opacity="0.69"></line><line x1="256" y1="400" x2="544" y2="400" transform="rotate(324, 400, 400)" opacity="0.20"></line><line x1="187" y1="400" x2="613" y2="400" transform="rotate(328, 400, 400)" opacity="0.17"></line><line x1="597" y1="400" x2="203" y2="400" transform="rotate(332, 400, 400)" opacity="0.07"></line><line x1="412.5" y1="400" x2="387.5" y2="400" transform="rotate(336, 400, 400)" opacity="0.37"></line><line x1="22.5" y1="400" x2="777.5" y2="400" transform="rotate(340, 400, 400)" opacity="0.30"></line><line x1="558.5" y1="400" x2="241.5" y2="400" transform="rotate(344, 400, 400)" opacity="0.31"></line><line x1="346.5" y1="400" x2="453.5" y2="400" transform="rotate(348, 400, 400)" opacity="0.59"></line></g></svg>